<svg xmlns="http://www.w3.org/2000/svg" width="19.608" height="14.706" viewBox="0 0 19.608 14.706">
  <g id="camera" transform="translate(0 -2)">
    <path id="Path_99046" data-name="Path 99046" d="M18.383,14.255a1.226,1.226,0,0,1-1.226,1.226H2.451a1.226,1.226,0,0,1-1.226-1.226V6.9A1.226,1.226,0,0,1,2.451,5.677H3.887A3.677,3.677,0,0,0,6.485,4.6L7.5,3.585a1.226,1.226,0,0,1,.864-.359h2.873a1.225,1.225,0,0,1,.866.359L13.12,4.6a3.677,3.677,0,0,0,2.6,1.077h1.436A1.226,1.226,0,0,1,18.383,6.9ZM2.451,4.451A2.451,2.451,0,0,0,0,6.9v7.353a2.451,2.451,0,0,0,2.451,2.451H17.157a2.451,2.451,0,0,0,2.451-2.451V6.9a2.451,2.451,0,0,0-2.451-2.451H15.721a2.451,2.451,0,0,1-1.732-.718L12.973,2.718A2.451,2.451,0,0,0,11.24,2H8.368a2.451,2.451,0,0,0-1.732.718L5.62,3.733a2.451,2.451,0,0,1-1.733.718Z" fill="#fff"/>
    <path id="Path_99047" data-name="Path 99047" d="M9.353,12.353a3.064,3.064,0,1,1,3.064-3.064A3.064,3.064,0,0,1,9.353,12.353Zm0,1.226A4.289,4.289,0,1,0,5.064,9.289a4.289,4.289,0,0,0,4.289,4.289ZM3.226,6.838a.613.613,0,1,1-.613-.613A.613.613,0,0,1,3.226,6.838Z" transform="translate(0.451 0.677)" fill="#fff"/>
  </g>
</svg>
