<svg id="Group_57137" data-name="Group 57137" xmlns="http://www.w3.org/2000/svg" xmlns:xlink="http://www.w3.org/1999/xlink" width="188.285" height="91.218" viewBox="0 0 188.285 91.218">
  <defs>
    <linearGradient id="linear-gradient" x1="0.79" y1="-0.358" x2="0.206" y2="0.688" gradientUnits="objectBoundingBox">
      <stop offset="0" stop-color="#feb692"/>
      <stop offset="1" stop-color="#ea5455"/>
    </linearGradient>
    <linearGradient id="linear-gradient-2" x1="0.79" y1="1.358" x2="0.206" y2="0.312" xlink:href="#linear-gradient"/>
  </defs>
  <g id="photo" transform="translate(170.783 91.619) rotate(-164.991)">
    <path id="Path_58931" data-name="Path 58931" d="M67.579,45.15V6.546A14.086,14.086,0,0,0,66.08.211L57.928,9.165l-6.737,7.392c-1.816,1.986-4.54,3.4-6.822,2.491a45.637,45.637,0,0,1-6.948-4.921l-5.745,6.345a7.793,7.793,0,0,1-11.552,0L9.652,8.954,1.564,0A14.149,14.149,0,0,0,0,6.546v38.6A14.487,14.487,0,0,0,14.488,59.638h38.6A14.487,14.487,0,0,0,67.579,45.15Z" transform="translate(0 7.94)" fill="#dce5ef"/>
    <path id="Path_58932" data-name="Path 58932" d="M28.551,7.581A14.445,14.445,0,0,0,19.492,0L4.71,16.366,0,21.541a45.637,45.637,0,0,0,6.822,4.915c2.3.909,5.026-.507,6.822-2.491l6.735-7.43Z" transform="translate(37.527 0.528)" fill="#cfdff0"/>
    <path id="Path_58933" data-name="Path 58933" d="M55.457.528A14.656,14.656,0,0,0,51.57,0H12.924A14.465,14.465,0,0,0,0,7.94l8.088,8.954,10.453,11.5a7.793,7.793,0,0,0,11.552,0l5.745-6.343,4.71-5.152Z" transform="translate(1.564 0)" fill="url(#linear-gradient)"/>
    <path id="Path_58934" data-name="Path 58934" d="M55.457.528A14.656,14.656,0,0,0,51.57,0H12.924A14.465,14.465,0,0,0,0,7.94l8.088,8.954,10.453,11.5a7.793,7.793,0,0,0,11.552,0l5.745-6.343,4.71-5.152Z" transform="translate(1.564 0)" fill="#c8d3dc"/>
    <circle id="Ellipse_2808" data-name="Ellipse 2808" cx="4.836" cy="4.836" r="4.836" transform="translate(41.012 41.012)" fill="#0a2842"/>
  </g>
  <g id="photo-2" data-name="photo" transform="translate(0 26.342) rotate(-15.009)">
    <path id="Path_58931-2" data-name="Path 58931" d="M67.579,14.487v38.6a14.086,14.086,0,0,1-1.5,6.335l-8.152-8.954-6.737-7.392c-1.816-1.986-4.54-3.4-6.822-2.491a45.637,45.637,0,0,0-6.948,4.919l-5.745-6.335a7.793,7.793,0,0,0-11.552,0L9.652,50.684,1.564,59.638A14.149,14.149,0,0,1,0,53.091v-38.6A14.487,14.487,0,0,1,14.488,0h38.6A14.487,14.487,0,0,1,67.579,14.487Z" transform="translate(0 0)" fill="#dce5ef"/>
    <path id="Path_58932-2" data-name="Path 58932" d="M28.551,19.163a14.445,14.445,0,0,1-9.059,7.581L4.71,10.377,0,5.2A45.637,45.637,0,0,1,6.822.282c2.3-.91,5.025.507,6.82,2.493l6.737,7.434Z" transform="translate(37.527 40.306)" fill="#cfdff0"/>
    <path id="Path_58933-2" data-name="Path 58933" d="M55.457,30.424a14.656,14.656,0,0,1-3.886.528H12.924A14.465,14.465,0,0,1,0,23.011l8.088-8.954,10.453-11.5a7.793,7.793,0,0,1,11.552,0L35.837,8.9l4.71,5.152Z" transform="translate(1.564 36.627)" fill="url(#linear-gradient-2)"/>
    <path id="Path_58934-2" data-name="Path 58934" d="M55.457,30.424a14.656,14.656,0,0,1-3.886.528H12.924A14.465,14.465,0,0,1,0,23.011l8.088-8.954,10.453-11.5a7.793,7.793,0,0,1,11.552,0L35.837,8.9l4.71,5.152Z" transform="translate(1.564 36.627)" fill="#c8d3dc"/>
    <circle id="Ellipse_2808-2" data-name="Ellipse 2808" cx="4.836" cy="4.836" r="4.836" transform="translate(41.012 16.895)" fill="#0a2842"/>
  </g>
  <g id="photo-3" data-name="photo" transform="translate(50.474)">
    <path id="Path_58931-3" data-name="Path 58931" d="M86.609,18.567V68.042a18.053,18.053,0,0,1-1.921,8.119L74.242,64.686l-8.634-9.473c-2.327-2.545-5.826-4.357-8.743-3.194a58.487,58.487,0,0,0-8.905,6.3L40.6,50.2a9.987,9.987,0,0,0-14.8,0L12.369,64.957,2,76.432a18.134,18.134,0,0,1-2-8.39V18.567A18.567,18.567,0,0,1,18.568,0H68.042A18.567,18.567,0,0,1,86.609,18.567Z" transform="translate(0)" fill="#cfdff0"/>
    <path id="Path_58932-3" data-name="Path 58932" d="M54.362,43.641a18.512,18.512,0,0,1-11.61,9.716L23.8,32.381,17.77,25.75a58.49,58.49,0,0,1,8.743-6.3c2.949-1.164,6.442.649,8.743,3.194l8.634,9.527Z" transform="translate(30.325 32.576)" fill="#a5b8c8"/>
    <path id="Path_58933-3" data-name="Path 58933" d="M71.813,56.326A18.783,18.783,0,0,1,66.834,57H17.3A18.539,18.539,0,0,1,.74,46.829L11.106,35.352,24.5,20.629a9.987,9.987,0,0,1,14.8,0l7.362,8.119,6.036,6.6Z" transform="translate(1.263 29.603)" fill="url(#linear-gradient-2)"/>
    <path id="Path_58934-3" data-name="Path 58934" d="M71.813,56.326A18.783,18.783,0,0,1,66.834,57H17.3A18.539,18.539,0,0,1,.74,46.829L11.106,35.352,24.5,20.629a9.987,9.987,0,0,1,14.8,0l7.362,8.119,6.036,6.6Z" transform="translate(1.263 29.603)" fill="#0a2842"/>
    <circle id="Ellipse_2808-3" data-name="Ellipse 2808" cx="6.198" cy="6.198" r="6.198" transform="translate(52.561 21.652)" fill="#0a2842"/>
  </g>
</svg>
