<svg xmlns="http://www.w3.org/2000/svg" width="48.215" height="48.216" viewBox="0 0 48.215 48.216">
  <g id="fi-rr-settings-sliders" transform="translate(0 0)">
    <path id="Path_74534" data-name="Path 74534" d="M2.009,9.543h5.5a7.489,7.489,0,0,0,14.455,0H46.206a2.009,2.009,0,1,0,0-4.018H21.96a7.489,7.489,0,0,0-14.455,0h-5.5a2.009,2.009,0,0,0,0,4.018ZM14.732,4.018a3.516,3.516,0,1,1-3.516,3.516A3.516,3.516,0,0,1,14.732,4.018Z" transform="translate(0 0)" fill="#0d62fc"/>
    <path id="Path_74535" data-name="Path 74535" d="M46.206,13.776h-5.5a7.487,7.487,0,0,0-14.453,0H2.009a2.009,2.009,0,1,0,0,4.018H26.257a7.487,7.487,0,0,0,14.453,0h5.5a2.009,2.009,0,1,0,0-4.018ZM33.484,19.3A3.516,3.516,0,1,1,37,15.785,3.516,3.516,0,0,1,33.484,19.3Z" transform="translate(0 8.323)" fill="#142349"/>
    <path id="Path_74536" data-name="Path 74536" d="M46.206,22.025H21.96a7.489,7.489,0,0,0-14.455,0h-5.5a2.009,2.009,0,1,0,0,4.018h5.5a7.489,7.489,0,0,0,14.455,0H46.206a2.009,2.009,0,1,0,0-4.018ZM14.732,27.55a3.516,3.516,0,1,1,3.516-3.516A3.516,3.516,0,0,1,14.732,27.55Z" transform="translate(0 16.648)" fill="#0d62fc"/>
  </g>
</svg>
