<svg id="fi-rr-mode-landscape" xmlns="http://www.w3.org/2000/svg" width="54.539" height="54.539" viewBox="0 0 54.539 54.539">
  <path id="Path_74528" data-name="Path 74528" d="M37.087,30.887a2.272,2.272,0,0,0,1.607-3.879L24.668,12.985a11.362,11.362,0,0,0-16.066,0L3.666,17.918a2.272,2.272,0,1,0,3.214,3.214L11.815,16.2a6.976,6.976,0,0,1,9.64,0L35.48,30.222A2.272,2.272,0,0,0,37.087,30.887Z" transform="translate(3.817 12.29)" fill="#142349"/>
  <path id="Path_74529" data-name="Path 74529" d="M20.454,19.407A7.954,7.954,0,1,0,12.5,11.454a7.954,7.954,0,0,0,7.954,7.954Zm0-11.362a3.409,3.409,0,1,1-3.409,3.409,3.409,3.409,0,0,1,3.409-3.409Z" transform="translate(15.906 4.454)" fill="#142349"/>
  <path id="Path_74530" data-name="Path 74530" d="M31.907,16a2.272,2.272,0,0,0-2.272,2.272v4.545a6.817,6.817,0,0,1-6.817,6.817H18.272a2.272,2.272,0,0,0,0,4.545h4.545A11.376,11.376,0,0,0,34.18,22.817V18.272A2.272,2.272,0,0,0,31.907,16Z" transform="translate(20.36 20.36)" fill="#0d62fc"/>
  <path id="Path_74531" data-name="Path 74531" d="M2.272,18.18a2.272,2.272,0,0,0,2.272-2.272V11.362a6.817,6.817,0,0,1,6.817-6.817h4.545a2.272,2.272,0,1,0,0-4.545H11.362A11.376,11.376,0,0,0,0,11.362v4.545A2.272,2.272,0,0,0,2.272,18.18Z" fill="#0d62fc"/>
  <path id="Path_74532" data-name="Path 74532" d="M15.907,29.635H11.362a6.817,6.817,0,0,1-6.817-6.817V18.272a2.272,2.272,0,0,0-4.545,0v4.545A11.376,11.376,0,0,0,11.362,34.18h4.545a2.272,2.272,0,1,0,0-4.545Z" transform="translate(0 20.36)" fill="#0d62fc"/>
  <path id="Path_74533" data-name="Path 74533" d="M22.817,0H18.272a2.272,2.272,0,0,0,0,4.545h4.545a6.817,6.817,0,0,1,6.817,6.817v4.545a2.272,2.272,0,1,0,4.545,0V11.362A11.376,11.376,0,0,0,22.817,0Z" transform="translate(20.36)" fill="#0d62fc"/>
</svg>
