<svg id="fi-rr-download" xmlns="http://www.w3.org/2000/svg" width="49.113" height="49.113" viewBox="0 0 49.113 49.113">
  <path id="Path_74537" data-name="Path 74537" d="M13.545,37.084a6.139,6.139,0,0,0,8.685,0L28.8,30.513a2.046,2.046,0,0,0-2.894-2.887l-5.988,5.99.014-31.569A2.046,2.046,0,0,0,17.887,0h0a2.046,2.046,0,0,0-2.046,2.046l-.018,31.53L9.867,27.626a2.047,2.047,0,1,0-2.894,2.9Z" transform="translate(6.669)" fill="#142349"/>
  <path id="Path_74538" data-name="Path 74538" d="M47.066,16h0a2.046,2.046,0,0,0-2.046,2.046v8.185a2.046,2.046,0,0,1-2.046,2.046H6.139a2.046,2.046,0,0,1-2.046-2.046V18.046A2.046,2.046,0,0,0,2.046,16h0A2.046,2.046,0,0,0,0,18.046v8.185a6.139,6.139,0,0,0,6.139,6.139H42.973a6.139,6.139,0,0,0,6.139-6.139V18.046A2.046,2.046,0,0,0,47.066,16Z" transform="translate(0 16.742)" fill="#0d62fc"/>
</svg>
