<svg id="Group_60826" data-name="Group 60826" xmlns="http://www.w3.org/2000/svg" xmlns:xlink="http://www.w3.org/1999/xlink" width="305.5" height="409.5" viewBox="0 0 305.5 409.5">
  <defs>
    <clipPath id="clip-path">
      <rect id="Rectangle_6863" data-name="Rectangle 6863" width="305.5" height="409.5" fill="#0d62fc"/>
    </clipPath>
  </defs>
  <path id="Path_99143" data-name="Path 99143" d="M302.5,402V406.5H298v3h7.5V402Z" fill="#0d62fc"/>
  <path id="Path_99144" data-name="Path 99144" d="M19.12,409.5H30.74v-3H19.12Zm23.24,0H53.979v-3H42.36Zm23.239,0H77.22v-3H65.6Zm23.241,0h11.62v-3H88.84Zm23.24,0H123.7v-3H112.08Zm23.24,0h11.619v-3H135.32Zm23.239,0H170.18v-3H158.559Zm23.241,0h11.62v-3H181.8Zm23.24,0h11.621v-3H205.04Zm23.241,0H239.9v-3H228.281Zm23.238,0h11.62v-3h-11.62Zm23.241,0h11.62v-3H274.76Z" fill="#0d62fc"/>
  <path id="Path_99145" data-name="Path 99145" d="M0,402V409.5H7.5v-3H3V402Z" fill="#0d62fc"/>
  <g id="Group_60825" data-name="Group 60825">
    <g id="Group_60824" data-name="Group 60824" clip-path="url(#clip-path)">
      <path id="Path_99146" data-name="Path 99146" d="M305.5,389.893h-3V377.768h3ZM3,389.89H0V377.77H3Zm0-24.246H0V362.92c0-1.234.431-2.1,9.273-5.544l1.09,2.795A45.876,45.876,0,0,0,3,363.463Zm302.5,0h-3v-2.178a45.871,45.871,0,0,0-7.375-3.3l1.088-2.8c8.855,3.447,9.287,4.314,9.287,5.55ZM21.712,356.013l-1-2.83c2.119-.747,4.093-1.43,5.723-2,2.006-.7,3.589-1.244,4.105-1.445s1.056-.406,1.6-.607l1.043,2.812q-.789.293-1.55.59c-.569.223-2.1.752-4.213,1.485-1.626.564-3.6,1.246-5.71,1.991m262.062-.005c-2.146-.756-4.142-1.449-5.782-2.016-2.07-.718-3.565-1.236-4.127-1.455q-.77-.3-1.565-.6l1.045-2.812q.82.3,1.611.613c.507.2,2.057.735,4.019,1.415,1.643.569,3.644,1.263,5.795,2.021ZM44.608,348.122l-.9-2.862,3.693-1.154c2.572-.8,5.206-1.62,7.863-2.475l.919,2.855c-2.666.859-5.308,1.682-7.89,2.485Zm216.27-.005q-1.852-.58-3.755-1.172c-2.561-.8-5.182-1.612-7.824-2.464l.92-2.855c2.632.848,5.244,1.661,7.8,2.455q1.9.593,3.761,1.175ZM67.714,340.51,66.659,337.7c4.144-1.557,7.749-3.088,11.023-4.682l1.312,2.7c-3.357,1.634-7.048,3.2-11.28,4.793m170.057-.005c-4.233-1.592-7.922-3.159-11.278-4.794l1.315-2.7c3.269,1.592,6.874,3.125,11.018,4.682Zm-148.108-11-1.734-2.447a42.82,42.82,0,0,0,8.588-7.881l2.333,1.885a45.762,45.762,0,0,1-9.187,8.443m126.164-.006a45.794,45.794,0,0,1-9.182-8.444l2.334-1.885a42.8,42.8,0,0,0,8.584,7.882ZM104.788,309.968l-2.873-.868a30.829,30.829,0,0,0,1.269-8.918c0-.8-.027-1.61-.082-2.412l1.492-.193,1.5-.1c.064.957.093,1.836.093,2.7a33.866,33.866,0,0,1-1.4,9.786m95.923-.011a33.855,33.855,0,0,1-1.4-9.776c0-.86.03-1.738.087-2.611l3,.1-.011.139c-.049.767-.077,1.579-.077,2.372a30.849,30.849,0,0,0,1.268,8.911Zm-99.53-23.944a91.769,91.769,0,0,0-3.72-11.311l2.787-1.111a94.864,94.864,0,0,1,3.841,11.683Zm103.14,0-2.908-.739a94.758,94.758,0,0,1,3.841-11.683l2.787,1.111a91.659,91.659,0,0,0-3.72,11.311m-111.827-22.2q-.8-1.569-1.617-3.1c-.822-1.535-1.724-3.161-2.679-4.83l-.087-.157c-.437-.838-.885-1.723-1.322-2.617l2.695-1.318q.639,1.307,1.306,2.583l.059.106c.922,1.606,1.837,3.258,2.673,4.82q.834,1.563,1.646,3.157Zm120.512,0-2.675-1.359q.81-1.594,1.645-3.155c.837-1.563,1.752-3.215,2.722-4.908.456-.87.891-1.731,1.317-2.6l2.7,1.319q-.657,1.34-1.341,2.651l-.067.12c-.955,1.67-1.857,3.3-2.68,4.833q-.817,1.531-1.616,3.1M81.949,241.853c-1.413-3.766-2.682-7.684-3.769-11.644l2.892-.795c1.065,3.873,2.305,7.7,3.686,11.385Zm141.6,0-2.809-1.054c1.381-3.677,2.621-7.51,3.688-11.392l2.892.794c-1.09,3.97-2.359,7.89-3.771,11.652M75.456,218.283c-.731-3.975-1.306-8.049-1.708-12.108l2.984-.3c.4,3.977.959,7.969,1.675,11.863Zm154.591-.017-2.951-.542c.714-3.889,1.277-7.881,1.672-11.868l2.986.3c-.4,4.068-.979,8.144-1.707,12.113m-157.02-24.3Q73,192.49,73,191c0-3.074.093-6.187.276-9.251l2.994.179c-.179,3.005-.27,6.058-.27,9.074q0,1.463.027,2.913Zm159.446-.024-3-.057q.027-1.44.027-2.889c0-3.036-.092-6.1-.273-9.1l2.995-.181c.184,3.063.278,6.185.278,9.281q0,1.478-.027,2.946M77.471,170l-2.971-.422c.576-4.052,1.325-8.1,2.226-12.029l2.924.671c-.882,3.847-1.615,7.811-2.179,11.78m150.554-.027c-.563-3.965-1.3-7.929-2.181-11.78l2.923-.671c.9,3.933,1.653,7.98,2.229,12.03ZM82.836,146.679l-2.854-.927c1.272-3.915,2.725-7.771,4.32-11.461l2.754,1.191c-1.558,3.6-2.978,7.371-4.22,11.2m139.82-.026c-1.242-3.824-2.663-7.591-4.222-11.2l2.754-1.191c1.6,3.691,3.05,7.547,4.322,11.46ZM92.342,124.761,89.723,123.3a109.949,109.949,0,0,1,6.569-10.366l2.437,1.748a107.12,107.12,0,0,0-6.387,10.082m120.8-.023a106.606,106.606,0,0,0-6.389-10.08l2.437-1.748a109.919,109.919,0,0,1,6.572,10.364Zm-106.892-19.3-2.2-2.039a86.242,86.242,0,0,1,8.981-8.423l1.887,2.332a83.243,83.243,0,0,0-8.667,8.13m92.979-.02a83.661,83.661,0,0,0-8.671-8.127l1.887-2.333a86.746,86.746,0,0,1,8.984,8.42Zm-74.537-14.8-1.482-2.609A67.26,67.26,0,0,1,134.474,82.9l.978,2.836a64.3,64.3,0,0,0-10.758,4.884m56.09-.014a64.187,64.187,0,0,0-10.755-4.877l.977-2.837A67.272,67.272,0,0,1,182.265,88Zm-33.871-7.589-.395-2.974c1.942-.257,3.921-.422,5.884-.49a4.135,4.135,0,0,1,.7,0c1.955.067,3.929.231,5.87.488l-.393,2.974c-1.859-.246-3.752-.4-5.624-.465l-.132-.011-.267.011c-1.881.064-3.779.221-5.638.467" fill="#0d62fc"/>
      <path id="Path_99147" data-name="Path 99147" d="M152.921,82.546a2.028,2.028,0,0,1-.2-.01,1.093,1.093,0,0,0,.195-.006l-.276-1.573.105.021-.177-1.379a1.309,1.309,0,0,0-.155.056l-.014-.073.248-.059.15.011c.07,0,.139,0,.206,0h1.834l-.364,1.8a1.529,1.529,0,0,1-1.549,1.219m.079-.474v.447c.032,0,.067-.012.1-.021Zm-.016-2.524.028,0-.028,0" fill="#0d62fc"/>
      <path id="Path_99148" data-name="Path 99148" d="M150.312,82.676l1.217-3.249,1.311.117-.071.716.024.906-.043-.017v1.369c.026,0,.052-.008.078-.013v.033l-.126.007-.044,0Zm2.182-.152h0Z" fill="#0d62fc"/>
      <path id="Path_99149" data-name="Path 99149" d="M90.909,260.764c-.959-1.621-1.881-3.284-2.741-4.944l2.634-1.435c.825,1.441,1.61,2.851,2.341,4.2h0l.378.707Z" fill="#0d62fc"/>
      <path id="Path_99150" data-name="Path 99150" d="M88.16,255.808a45,45,0,0,1-2.854-5.846l2.757-1.177c.89,1.94,1.807,3.818,2.727,5.581Z" fill="#0d62fc"/>
      <path id="Path_99151" data-name="Path 99151" d="M305,7.5h-3V3h-4.5V0H305Z" fill="#0d62fc"/>
      <path id="Path_99152" data-name="Path 99152" d="M285.9,3H274.3V0h11.6ZM262.7,3H251.1V0h11.6ZM239.5,3H227.9V0h11.6ZM216.3,3H204.7V0h11.6ZM193.1,3H181.5V0h11.6ZM169.9,3H158.3V0h11.6ZM146.7,3H135.1V0h11.6ZM123.5,3H111.9V0h11.6ZM100.3,3H88.7V0h11.6ZM77.1,3H65.5V0H77.1ZM53.9,3H42.3V0H53.9ZM30.7,3H19.1V0H30.7Z" fill="#0d62fc"/>
      <path id="Path_99153" data-name="Path 99153" d="M3,7.5H0V0H7.5V3H3Z" fill="#0d62fc"/>
      <path id="Path_99154" data-name="Path 99154" d="M3,390.046H0V378.091H3Zm0-23.909H0V354.182H3Zm0-23.909H0V330.273H3Zm0-23.91H0V306.363H3Zm0-23.909H0V282.455H3ZM3,270.5H0V258.545H3Zm0-23.909H0V234.636H3Zm0-23.909H0V210.728H3Zm0-23.909H0V186.818H3Zm0-23.909H0V162.909H3Zm0-23.909H0V139H3Zm0-23.91H0V115.09H3Zm0-23.909H0V91.181H3ZM3,79.228H0V67.273H3Zm0-23.91H0V43.363H3ZM3,31.409H0V19.454H3Z" fill="#0d62fc"/>
      <path id="Path_99155" data-name="Path 99155" d="M7.5,409.5H0V402H3v4.5H7.5Z" fill="#0d62fc"/>
      <path id="Path_99156" data-name="Path 99156" d="M285.9,409.5H274.3v-3h11.6Zm-23.2,0H251.1v-3h11.6Zm-23.2,0H227.9v-3h11.6Zm-23.2,0H204.7v-3h11.6Zm-23.2,0H181.5v-3h11.6Zm-23.2,0H158.3v-3h11.6Zm-23.2,0H135.1v-3h11.6Zm-23.2,0H111.9v-3h11.6Zm-23.2,0H88.7v-3h11.6Zm-23.2,0H65.5v-3H77.1Zm-23.2,0H42.3v-3H53.9Zm-23.2,0H19.1v-3H30.7Z" fill="#0d62fc"/>
      <path id="Path_99157" data-name="Path 99157" d="M305,409.5h-7.5v-3H302V402h3Z" fill="#0d62fc"/>
      <path id="Path_99158" data-name="Path 99158" d="M305,390.046h-3V378.092h3Zm0-23.909h-3V354.183h3Zm0-23.909h-3V330.274h3Zm0-23.91h-3V306.364h3Zm0-23.909h-3V282.455h3Zm0-23.909h-3V258.545h3Zm0-23.909h-3V234.636h3Zm0-23.909h-3V210.727h3Zm0-23.909h-3V186.819h3Zm0-23.909h-3V162.909h3Zm0-23.909h-3V139h3Zm0-23.909h-3V115.091h3Zm0-23.909h-3V91.182h3Zm0-23.909h-3V67.273h3Zm0-23.91h-3V43.363h3Zm0-23.909h-3V19.455h3Z" fill="#0d62fc"/>
    </g>
  </g>
</svg>
