<svg id="facebook" xmlns="http://www.w3.org/2000/svg" width="16.09" height="16.09" viewBox="0 0 16.09 16.09">
  <g id="instagram-logo" transform="translate(0 0)">
    <path id="Path_254" data-name="Path 254" d="M11.65,0H4.44A4.445,4.445,0,0,0,0,4.44v7.21a4.445,4.445,0,0,0,4.44,4.44h7.21a4.445,4.445,0,0,0,4.44-4.44V4.44A4.445,4.445,0,0,0,11.65,0Zm3.013,11.65a3.016,3.016,0,0,1-3.013,3.013H4.44A3.016,3.016,0,0,1,1.428,11.65V4.44A3.016,3.016,0,0,1,4.44,1.428h7.21A3.016,3.016,0,0,1,14.663,4.44v7.21Z" fill="#fff"/>
    <path id="Path_255" data-name="Path 255" d="M45.114,40.97a4.146,4.146,0,1,0,4.146,4.146A4.151,4.151,0,0,0,45.114,40.97Zm0,6.864a2.718,2.718,0,1,1,2.718-2.718A2.721,2.721,0,0,1,45.114,47.834Z" transform="translate(-37.069 -37.071)" fill="#fff"/>
    <path id="Path_256" data-name="Path 256" d="M119.968,28.251a1.046,1.046,0,1,0,.74.306A1.051,1.051,0,0,0,119.968,28.251Z" transform="translate(-107.603 -25.562)" fill="#fff"/>
  </g>
</svg>
