<svg xmlns="http://www.w3.org/2000/svg" width="164.809" height="60.998" viewBox="0 0 164.809 60.998">
  <g id="Group_30" data-name="Group 30" transform="translate(-174.671 -205.716)">
    <path id="Path_69" data-name="Path 69" d="M443.53,222.783v17.666a10.983,10.983,0,0,1-10.989,10.983H399.613a10.983,10.983,0,0,1-9.753-5.944l4.758-9.142v4.1a5,5,0,0,0,5,5h32.929a5,5,0,0,0,5-5V224.379a2.3,2.3,0,0,0-2.287-2.293H432.1a4.115,4.115,0,0,1-3.767-2.452l-3.51-7.925H414.717a.234.234,0,0,0-.2.11l-.024.061-2.513,4.415h-6.892l4.183-7.35a6.2,6.2,0,0,1,5.442-3.229h10.242a5.782,5.782,0,0,1,5.289,3.449l3.07,6.935h3.522A6.686,6.686,0,0,1,443.53,222.783Z" transform="translate(-137.759)" fill="#0d62fc"/>
    <g id="Group_26" data-name="Group 26" transform="translate(260.434 255.309)">
      <g id="Group_25" data-name="Group 25" transform="translate(0 0)">
        <path id="Path_70" data-name="Path 70" d="M413.01,353.886v-7.335h2.037v7.335ZM415,344.464a.977.977,0,1,1-.972-.964A.935.935,0,0,1,415,344.464Z" transform="translate(-413.01 -343.5)" fill="#fff"/>
        <path id="Path_71" data-name="Path 71" d="M429.5,357.713v-2.029h4.351v2.029Z" transform="translate(-423.556 -351.291)" fill="#fff"/>
        <path id="Path_72" data-name="Path 72" d="M456.852,348.4v1.668h-2.423v2.515c0,.838.226,1.392,1.123,1.392a4.1,4.1,0,0,0,1.3-.226l.285,1.567a4.6,4.6,0,0,1-1.912.369,2.66,2.66,0,0,1-2.229-.854,3.45,3.45,0,0,1-.587-2.213v-6l2.02-.327V348.4Z" transform="translate(-438.204 -345.284)" fill="#fff"/>
        <path id="Path_73" data-name="Path 73" d="M476.7,356.848a5.864,5.864,0,0,0,2.146.427c.746,0,1.015-.117,1.015-.52a.532.532,0,0,0-.294-.436,6.867,6.867,0,0,0-.914-.411,4.38,4.38,0,0,1-1.517-.83,1.941,1.941,0,0,1-.57-1.518c0-1.342,1.048-2.179,2.8-2.179a7.242,7.242,0,0,1,2.2.36l-.36,1.584a5.069,5.069,0,0,0-1.7-.3c-.629,0-.947.176-.947.528a.4.4,0,0,0,.2.394,4.474,4.474,0,0,0,.863.427,4.169,4.169,0,0,1,1.8,1,1.944,1.944,0,0,1,.453,1.408c0,1.417-1.107,2.155-3.043,2.155a6.42,6.42,0,0,1-1.592-.168,5.653,5.653,0,0,1-.881-.276Z" transform="translate(-453.522 -348.54)" fill="#fff"/>
        <path id="Path_74" data-name="Path 74" d="M513.167,351.94c-.4,1.45-.864,2.909-1.274,4.183s-.822,2.381-1.157,3.16H509.11c-.469-1.417-.922-2.8-1.291-4.208-.377,1.409-.8,2.792-1.266,4.208h-1.609c-.344-.779-.746-1.886-1.156-3.16s-.872-2.732-1.283-4.183h2.188l.251,1.1c.168.8.369,1.635.587,2.481.109.427.218.83.327,1.224.243-.813.486-1.693.7-2.523.1-.411.2-.813.3-1.2l.252-1.081h1.517c.142.67.335,1.45.545,2.28s.428,1.71.671,2.523c.209-.78.444-1.651.646-2.49l.276-1.215c.092-.394.176-.763.251-1.1Z" transform="translate(-470.239 -348.897)" fill="#fff"/>
        <path id="Path_75" data-name="Path 75" d="M542.92,352.678a8.534,8.534,0,0,1,2.926-.529,7.2,7.2,0,0,1,.855.076,4.7,4.7,0,0,1,.847.193l-.336,1.668a5.733,5.733,0,0,0-1.417-.218,4.78,4.78,0,0,0-.855.109v5.441H542.92Z" transform="translate(-496.084 -349.031)" fill="#fff"/>
      </g>
    </g>
    <path id="Path_77" data-name="Path 77" d="M548.359,292.861h-5.623a4.172,4.172,0,0,1-3.137-1.422l-4.006-4.568h12.766a5,5,0,0,0,5-5V277.6a4.172,4.172,0,0,1,1.44-3.153l4.549-3.943v11.374A10.985,10.985,0,0,1,548.359,292.861Z" transform="translate(-231.034 -41.479)" fill="#fff"/>
    <path id="Path_78" data-name="Path 78" d="M392.262,247.478l1.951-3.742a4.981,4.981,0,0,1,4.427-2.684h26.355l-1.865-3.7a4.168,4.168,0,0,0-3.724-2.293H398.639a10.981,10.981,0,0,0-9.741,5.913l-.7,1.346h0l-.251.483v12.97l4.317-8.292" transform="translate(-136.515 -18.785)" fill="#0d62fc"/>
    <path id="Path_79" data-name="Path 79" d="M451.987,276.725a8.417,8.417,0,1,1,8.418-8.417A8.427,8.427,0,0,1,451.987,276.725Zm0-12.443a4.026,4.026,0,1,0,4.026,4.026A4.03,4.03,0,0,0,451.987,264.282Z" transform="translate(-172.097 -34.679)" fill="#0d62fc"/>
    <circle id="Ellipse_2" data-name="Ellipse 2" cx="2.196" cy="2.196" r="2.196" transform="translate(292.863 224.754)" fill="#0d62fc"/>
    <rect id="Rectangle_6748" data-name="Rectangle 6748" width="6.259" height="6.259" transform="translate(319.225 224.563) rotate(-45)" fill="#fff"/>
    <rect id="Rectangle_6749" data-name="Rectangle 6749" width="6.259" height="6.259" transform="translate(310.325 224.563) rotate(-45)" fill="#fff"/>
    <path id="Path_80" data-name="Path 80" d="M621.831,263.807h-5.989V232.6a4.173,4.173,0,0,1,1.5-3.206l4.487-3.739Z" transform="translate(-282.35 -12.748)" fill="#fff"/>
    <path id="Path_81" data-name="Path 81" d="M602.968,350.614h-4.392v-.6a6.991,6.991,0,0,1,6.991-6.991h5.187l-1.638,3.053a2.539,2.539,0,0,1-2.237,1.339h-1.312a2.6,2.6,0,0,0-2.6,2.6Z" transform="translate(-271.309 -87.885)" fill="#fff"/>
    <g id="Group_29" data-name="Group 29" transform="translate(174.671 208.214)">
      <path id="Path_82" data-name="Path 82" d="M198.56,270.7v21.568a5,5,0,0,1-5,5H180.5a4.43,4.43,0,0,0-3.921,2.368l-1.9,3.62h18.893a10.985,10.985,0,0,0,10.985-10.985V263.858l-4.445,3.6A4.173,4.173,0,0,0,198.56,270.7Z" transform="translate(-174.671 -245.477)" fill="#fff"/>
      <path id="Path_83" data-name="Path 83" d="M307.426,268.928V250.149l-.036-.012.036-.049a10.993,10.993,0,0,0-10.46-7.65H280.6a10.991,10.991,0,0,0-10.98,10.98v10.517a10.991,10.991,0,0,0,10.98,10.98h20.844v3.663a5,5,0,0,1-5,5H279.732a4.415,4.415,0,0,0-3.51,1.731l-3.271,4.256h23.494a10.982,10.982,0,0,0,10.982-10.983v-4.047a4.157,4.157,0,0,0,1.39-1.035l4.005-4.568Zm-31.821-4.993V253.418a5,5,0,0,1,4.991-4.991h16.37a4.993,4.993,0,0,1,4.474,2.794v17.7H280.6A5,5,0,0,1,275.605,263.935Z" transform="translate(-235.385 -231.779)" fill="#fff"/>
      <path id="Path_84" data-name="Path 84" d="M301.317,220.989h6.555a4.79,4.79,0,0,0,4.79-4.791v-3.554l-2.092,1.122a1.74,1.74,0,0,0-.918,1.533v.9a1.781,1.781,0,0,1-1.781,1.781h-1.478a4.769,4.769,0,0,0,.346-1.781v-3.554l-2.092,1.122a1.74,1.74,0,0,0-.917,1.533v.9a1.781,1.781,0,0,1-1.781,1.781h-.632a1.781,1.781,0,0,1-1.781-1.781v-.9a1.74,1.74,0,0,0-.917-1.533l-2.092-1.122V216.2A4.79,4.79,0,0,0,301.317,220.989Z" transform="translate(-252.594 -212.644)" fill="#fff"/>
    </g>
    <path id="Path_85" data-name="Path 85" d="M594.581,367.347H580.414l1.323-2.109a4.87,4.87,0,0,1,4.127-2.282H599.14l-2.478,3.343A2.589,2.589,0,0,1,594.581,367.347Z" transform="translate(-259.695 -100.632)" fill="#fff"/>
  </g>
</svg>
