<svg id="whatsapp-logo-variant" xmlns="http://www.w3.org/2000/svg" width="18.29" height="18.29" viewBox="0 0 18.29 18.29">
  <path id="Path_257" data-name="Path 257" d="M18.29,8.91a9,9,0,0,1-13.319,7.8L0,18.29l1.62-4.781a8.819,8.819,0,0,1-1.288-4.6,8.979,8.979,0,0,1,17.957,0ZM9.31,1.421A7.528,7.528,0,0,0,1.762,8.911,7.41,7.41,0,0,0,3.2,13.3l-.942,2.781,2.9-.921a7.557,7.557,0,0,0,11.7-6.252A7.527,7.527,0,0,0,9.31,1.421Zm4.535,9.541c-.056-.09-.2-.145-.422-.255s-1.3-.638-1.5-.709-.349-.11-.5.109-.567.71-.7.857-.256.165-.477.057A6.068,6.068,0,0,1,8.479,9.937,6.57,6.57,0,0,1,7.255,8.424c-.129-.218-.013-.336.1-.445s.22-.255.33-.383a1.456,1.456,0,0,0,.22-.363.407.407,0,0,0-.018-.383c-.055-.11-.494-1.183-.679-1.62s-.366-.364-.5-.364-.275-.018-.422-.018a.806.806,0,0,0-.586.272,2.444,2.444,0,0,0-.77,1.821A4.222,4.222,0,0,0,5.83,9.2a9.014,9.014,0,0,0,3.76,3.3c2.238.874,2.238.582,2.641.545A2.22,2.22,0,0,0,13.717,12,1.815,1.815,0,0,0,13.845,10.962Z" fill="#fff"/>
</svg>
